<svg width="24" height="24" xmlns="http://www.w3.org/2000/svg">

 <g>
  <title>background</title>
  <rect fill="none" id="canvas_background" height="402" width="582" y="-1" x="-1"/>
 </g>
 <g>
  <title>Layer 1</title>
  <path id="svg_1" fill="none" d="m0,0l24,0l0,24l-24,0l0,-24z"/>
  <path fill="#ffffff" id="svg_2" d="m19,2l-14,0c-1.11,0 -2,0.9 -2,2l0,14c0,1.1 0.89,2 2,2l4,0l3,3l3,-3l4,0c1.1,0 2,-0.9 2,-2l0,-14c0,-1.1 -0.9,-2 -2,-2zm-6,16l-2,0l0,-2l2,0l0,2zm2.07,-7.75l-0.9,0.92c-0.72,0.73 -1.17,1.33 -1.17,2.83l-2,0l0,-0.5c0,-1.1 0.45,-2.1 1.17,-2.83l1.24,-1.26c0.37,-0.36 0.59,-0.86 0.59,-1.41c0,-1.1 -0.9,-2 -2,-2s-2,0.9 -2,2l-2,0c0,-2.21 1.79,-4 4,-4s4,1.79 4,4c0,0.88 -0.36,1.68 -0.93,2.25z"/>
 </g>
</svg>