<svg width="24" height="24" xmlns="http://www.w3.org/2000/svg">

 <g>
  <title>background</title>
  <rect fill="none" id="canvas_background" height="402" width="582" y="-1" x="-1"/>
 </g>
 <g>
  <title>Layer 1</title>
  <path id="svg_1" fill="none" d="m0,0l24,0l0,24l-24,0l0,-24z"/>
  <path fill="#ffffff" id="svg_2" d="m10.09,15.59l1.41,1.41l5,-5l-5,-5l-1.41,1.41l2.58,2.59l-9.67,0l0,2l9.67,0l-2.58,2.59zm8.91,-12.59l-14,0c-1.11,0 -2,0.9 -2,2l0,4l2,0l0,-4l14,0l0,14l-14,0l0,-4l-2,0l0,4c0,1.1 0.89,2 2,2l14,0c1.1,0 2,-0.9 2,-2l0,-14c0,-1.1 -0.9,-2 -2,-2z"/>
 </g>
</svg>